<svg width="16" height="16" viewBox="0 0 16 16" fill="none" xmlns="http://www.w3.org/2000/svg">
<path d="M15.2 16C13.3987 16 11.5927 15.5853 9.782 14.756C7.97133 13.9267 6.303 12.749 4.777 11.223C3.26367 9.697 2.08933 8.02333 1.254 6.202C0.418 4.38 0 2.57933 0 0.8V0H4.439L5.287 4.083L2.591 6.593C3.047 7.38367 3.51933 8.106 4.008 8.76C4.49667 9.414 5.00567 10.0037 5.535 10.529C6.06967 11.089 6.67233 11.6123 7.343 12.099C8.01367 12.5857 8.779 13.0657 9.639 13.539L12.25 10.831L16 11.587V16H15.2Z" fill="black"/>
</svg>
