<svg width="34" height="36" viewBox="0 0 34 36" fill="none" xmlns="http://www.w3.org/2000/svg">
<path opacity="0.987" fill-rule="evenodd" clip-rule="evenodd" d="M14.9225 0.152128C16.738 -0.0507093 17.8123 -0.0507093 19.763 0.152128C23.2161 0.663215 26.4171 2.25934 28.9032 4.70971C27.2232 6.29769 25.5653 7.90885 23.9299 9.54274C20.7981 6.88833 17.3022 6.27564 13.4425 7.70469C10.6111 9.00685 8.63951 11.117 7.52766 14.0352C5.71074 12.6825 3.91748 11.2984 2.14871 9.88331C2.02579 9.81861 1.8854 9.79491 1.74805 9.8157C4.55772 4.39835 8.94835 1.17633 14.92 0.149624" fill="#F44336"/>
<path opacity="0.997" fill-rule="evenodd" clip-rule="evenodd" d="M1.74353 9.8156C1.88543 9.7939 2.01982 9.81644 2.1467 9.88321C3.91547 11.2983 5.70872 12.6824 7.52564 14.0351C7.23973 15.1722 7.0595 16.3332 6.98725 17.5034C7.04902 18.6353 7.22848 19.7463 7.52564 20.8364L1.87875 25.3314C-0.580335 20.1929 -0.62541 15.0209 1.74353 9.8156Z" fill="#FFC107"/>
<path opacity="0.999" fill-rule="evenodd" clip-rule="evenodd" d="M28.6355 30.7755C26.8772 29.2248 25.0365 27.7703 23.1213 26.4182C25.0412 25.0626 26.2064 23.2029 26.6171 20.8389H17.209V14.3056C22.6347 14.2605 28.0579 14.3064 33.4785 14.4433C34.5069 20.0276 33.3191 25.0626 29.9151 29.5484C29.5104 29.9787 29.0816 30.3882 28.6355 30.7755Z" fill="#448AFF"/>
<path opacity="0.993" fill-rule="evenodd" clip-rule="evenodd" d="M7.52531 20.8394C9.57872 25.9428 13.3433 28.3251 18.8191 27.9862C20.3562 27.8083 21.83 27.2713 23.1212 26.4186C25.0378 27.7742 26.8758 29.2266 28.6354 30.7759C25.8474 33.2812 22.2926 34.7677 18.5511 34.9929C17.7011 35.0608 16.847 35.0608 15.9969 34.9929C9.62296 34.2416 4.9168 31.0213 1.87842 25.3318L7.52531 20.8394Z" fill="#43A047"/>
</svg>
