<svg width="18" height="16" viewBox="0 0 18 16" fill="none" xmlns="http://www.w3.org/2000/svg">
<path d="M8.77187 14.1685C9.37193 14.1275 9.96697 14.0316 10.5496 13.8822C11.2691 14.0985 12.0286 14.1474 12.77 14.0253C12.7996 14.0217 12.8294 14.0195 12.8592 14.0187C13.1237 14.0187 13.4707 14.1704 13.977 14.4899V13.9646C13.9772 13.8731 14.0019 13.7834 14.0486 13.7047C14.0953 13.6259 14.1622 13.5612 14.2424 13.5171C14.463 13.3926 14.6669 13.2526 14.854 13.0971C15.5916 12.4809 16.0078 11.6579 16.0078 10.7875C16.0078 10.5003 15.9623 10.2139 15.8722 9.94088C16.096 9.52941 16.2742 9.09991 16.407 8.65241C16.8336 9.2829 17.0631 10.0272 17.0659 10.7875C17.0659 11.9708 16.5084 13.0744 15.5423 13.8812C15.3805 14.0158 15.2114 14.1397 15.0351 14.2529V15.4835C15.0351 15.9064 14.5401 16.15 14.1912 15.8978C13.8607 15.6546 13.519 15.4268 13.1673 15.2152C13.0657 15.1566 12.9606 15.1044 12.8525 15.0588C12.559 15.1022 12.2627 15.1241 11.966 15.1242C10.7619 15.1242 9.64887 14.7667 8.77187 14.1685ZM2.39965 11.7082C0.878894 10.4348 0 8.69886 0 6.83868C0 3.03868 3.63314 0 8.06932 0C12.5065 0 16.1405 3.03773 16.1405 6.83868C16.1405 10.6387 12.5065 13.6764 8.06932 13.6764C7.57062 13.6764 7.07919 13.6385 6.59502 13.5626C6.38644 13.611 5.55021 14.1012 4.34611 14.9687C3.90999 15.2835 3.29182 14.9801 3.29182 14.4501V12.3519C2.97954 12.1589 2.68168 11.9434 2.4006 11.7072M6.62441 12.2685C6.66107 12.2685 6.69805 12.2713 6.73534 12.277C7.17147 12.3491 7.61613 12.3854 8.06932 12.386C11.8172 12.386 14.816 9.87831 14.816 6.83774C14.816 3.79811 11.8172 1.29037 8.07027 1.29037C4.32336 1.29037 1.32261 3.80001 1.32261 6.83868C1.32261 8.30825 2.0242 9.69248 3.26243 10.7288C3.57467 10.9892 3.91473 11.223 4.28259 11.4304C4.38238 11.4857 4.46568 11.5666 4.52398 11.6647C4.58228 11.7628 4.61349 11.8747 4.61443 11.9888V13.1986C5.56727 12.5681 6.19397 12.2685 6.62441 12.2685Z" fill="black"/>
<path d="M4.79953 8.00018C5.08241 8.00018 5.35371 7.8878 5.55374 7.68777C5.75377 7.48775 5.86615 7.21645 5.86615 6.93356C5.86615 6.65068 5.75377 6.37938 5.55374 6.17935C5.35371 5.97932 5.08241 5.86694 4.79953 5.86694C4.51664 5.86694 4.24535 5.97932 4.04532 6.17935C3.84529 6.37938 3.73291 6.65068 3.73291 6.93356C3.73291 7.21645 3.84529 7.48775 4.04532 7.68777C4.24535 7.8878 4.51664 8.00018 4.79953 8.00018ZM8.26675 8.00018C8.54963 8.00018 8.82093 7.8878 9.02096 7.68777C9.22099 7.48775 9.33337 7.21645 9.33337 6.93356C9.33337 6.65068 9.22099 6.37938 9.02096 6.17935C8.82093 5.97932 8.54963 5.86694 8.26675 5.86694C7.98386 5.86694 7.71257 5.97932 7.51254 6.17935C7.31251 6.37938 7.20013 6.65068 7.20013 6.93356C7.20013 7.21645 7.31251 7.48775 7.51254 7.68777C7.71257 7.8878 7.98386 8.00018 8.26675 8.00018ZM11.733 8.00018C12.0159 8.00018 12.2872 7.8878 12.4872 7.68777C12.6873 7.48775 12.7996 7.21645 12.7996 6.93356C12.7996 6.65068 12.6873 6.37938 12.4872 6.17935C12.2872 5.97932 12.0159 5.86694 11.733 5.86694C11.4501 5.86694 11.1788 5.97932 10.9788 6.17935C10.7788 6.37938 10.6664 6.65068 10.6664 6.93356C10.6664 7.21645 10.7788 7.48775 10.9788 7.68777C11.1788 7.8878 11.4501 8.00018 11.733 8.00018Z" fill="black"/>
</svg>
