<svg width="24" height="39" viewBox="0 0 24 39" fill="none" xmlns="http://www.w3.org/2000/svg">
<path d="M4.15497 0C3.053 0 1.99617 0.433377 1.21696 1.20479C0.437754 1.97621 0 3.02247 0 4.11342V34.6011C0 35.692 0.437754 36.7383 1.21696 37.5097C1.99617 38.2811 3.053 38.7145 4.15497 38.7145H19.3084C20.4103 38.7145 21.4672 38.2811 22.2464 37.5097C23.0256 36.7383 23.4633 35.692 23.4633 34.6011V4.11342C23.4633 3.02247 23.0256 1.97621 22.2464 1.20479C21.4672 0.433377 20.4103 0 19.3084 0H4.15497ZM2.4441 4.11342C2.4441 3.17846 3.21057 2.41966 4.15497 2.41966H19.3084C20.2537 2.41966 21.0192 3.17846 21.0192 4.11342V34.6011C21.0192 35.0503 20.839 35.4811 20.5181 35.7988C20.1973 36.1164 19.7621 36.2949 19.3084 36.2949H4.15497C3.70122 36.2949 3.26605 36.1164 2.9452 35.7988C2.62435 35.4811 2.4441 35.0503 2.4441 34.6011V4.11342ZM9.04316 30.4877C8.71905 30.4877 8.40822 30.6151 8.17904 30.842C7.94986 31.0689 7.82111 31.3766 7.82111 31.6975C7.82111 32.0184 7.94986 32.3261 8.17904 32.553C8.40822 32.7799 8.71905 32.9073 9.04316 32.9073H14.4202C14.7443 32.9073 15.0551 32.7799 15.2843 32.553C15.5135 32.3261 15.6422 32.0184 15.6422 31.6975C15.6422 31.3766 15.5135 31.0689 15.2843 30.842C15.0551 30.6151 14.7443 30.4877 14.4202 30.4877H9.04316Z" fill="#1A1A1A"/>
</svg>
